# AST/ASF file generated using VICON BodyLanguage
# -----------------------------------------------
:version 1.10
:name VICON
:units
  mass 1.0
  length 0.45
  angle deg
:documentation
   .ast/.asf automatically generated from VICON data using
   VICON BodyBuilder and BodyLanguage model FoxedUp or BRILLIANT.MOD
:root
   order TX TY TZ RX RY RZ
   axis XYZ
   position 0 0 0  
   orientation 0 0 0 
:bonedata
  begin
     id 1 
     name lhipjoint
     direction 0.623415 -0.642378 0.445763 
     length 2.49859 
     axis 0 0 0  XYZ
  end
  begin
     id 2 
     name lfemur
     direction 0.34202 -0.939693 0  
     length 6.69689  
     axis 0 0 20  XYZ
    dof rx ry rz
    limits (-160.0 20.0)
           (-70.0 70.0)
           (-60.0 70.0)
  end
  begin
     id 3 
     name ltibia
     direction 0.34202 -0.939693 0   
     length 7.37574   
     axis 0 0 20   XYZ
    dof rx
    limits (-10.0 170.0)
  end
  begin
     id 4 
     name lfoot
     direction 0.084323 -0.231675 0.969132   
     length 2.09111   
     axis -90 7.62852e-016 20   XYZ
    dof rx rz
    limits (-45.0 90.0)
           (-70.0 20.0)
  end
  begin
     id 5 
     name ltoes
     direction 1.5357e-011 -4.21957e-011 1   
     length 1.04989   
     axis -90 7.62852e-016 20   XYZ
    dof rx
    limits (-90.0 20.0)
  end
  begin
     id 6 
     name rhipjoint
     direction -0.605402 -0.653903 0.45376   
     length 2.45455  
     axis 0 0 0  XYZ 
  end
  begin
     id 7 
     name rfemur
     direction -0.34202 -0.939693 0   
     length 6.64523   
     axis 0 0 -20   XYZ
    dof rx ry rz
    limits (-160.0 20.0)
           (-70.0 70.0)
           (-70.0 60.0)
  end
  begin
     id 8 
     name rtibia
     direction -0.34202 -0.939693 0   
     length 7.3339   
     axis 0 0 -20   XYZ
    dof rx
    limits (-10.0 170.0)
 end
 begin
     id 9 
     name rfoot
     direction -0.120854 -0.332043 0.93549   
     length 2.23135  
     axis -90 -7.62852e-016 -20   XYZ
    dof rx rz
    limits (-45.0 90.0)
           (-20.0 70.0)
  end
  begin
     id 10 
     name rtoes
     direction -1.53563e-011 -4.21914e-011 1   
     length 1.10614   
     axis -90 -7.62852e-016 -20   XYZ
    dof rx
    limits (-90.0 20.0)
  end
  begin
     id 11 
     name lowerback
     direction 0.0319682 0.998615 -0.0417941   
     length 2.02718   
     axis 0 0 0   XYZ
    dof rx ry rz
    limits (-20.0 45.0)
           (-30.0 30.0)
           (-30.0 30.0)
  end
  begin
     id 12 
     name upperback
     direction 7.63181e-005 0.995808 0.0914691   
     length 1.97539   
     axis 0 0 0   XYZ
    dof rx ry rz
    limits (-20.0 45.0)
           (-30.0 30.0)
           (-30.0 30.0)
  end
  begin
     id 13 
     name thorax
     direction -0.016423 0.993627 0.111514   
     length 2.00349   
     axis 0 0 0   XYZ
    dof rx ry rz
    limits (-20.0 45.0)
           (-30.0 30.0)
           (-30.0 30.0)
  end
  begin
     id 14 
     name lowerneck
     direction -0.174763 0.981668 -0.0760716   
     length 1.71436   
     axis 0 0 0   XYZ
    dof rx ry rz
    limits (-20.0 45.0)
           (-30.0 30.0)
           (-30.0 30.0)
  end
  begin
     id 15 
     name upperneck
     direction 0.345458 0.934587 -0.0848868   
     length 1.72805   
     axis 0 0 0   XYZ
    dof rx ry rz
    limits (-20.0 45.0)
           (-30.0 30.0)
           (-30.0 30.0)
  end
  begin
     id 16
     name head
     direction 0.13001 0.989848 -0.0574291  
     length 1.767  
     axis 0 0 0   XYZ
    dof rx ry rz
    limits (-20.0 45.0)
           (-30.0 30.0)
           (-30.0 30.0)
  end
  begin
     id 17 
     name lclavicle
     direction 0.952951 0.290122 0.0878234  
     length 3.54654  
     axis 0 0 0   XYZ
    dof ry rz
    limits (-20.0 10.0)
           (0.0 20.0)
  end
  begin
     id 18 
     name lhumerus
     direction 1 -4.48957e-011 -4.56525e-028   
     length 5.19807   
     axis 180 -30 -90   XYZ
    dof rx ry rz
    limits (-60.0 90.0)
           (-90.0 90.0)
           (-90.0 90.0)
  end
  begin
     id 19
     name lradius
     direction 1 -4.48979e-011 -2.0317e-027   
     length 3.0937   
     axis 180 -30 -90   XYZ
    dof rx
    limits (-10.0 170.0)
  end
  begin
     id 20
     name lwrist
     direction 1 -4.48953e-011 -3.05809e-027   
     length 1.54685   
     axis 8.48514e-016 90 90   XYZ
    dof ry
    limits (-180.0 0.0)
 end
  begin
     id 21 
     name lhand
     direction 1 -4.48952e-011 -6.11639e-027   
     length 0.672632   
     axis 3.9013e-015 90 90   XYZ
    dof rx rz
    limits (-90.0 90.0)
           (-45.0 45.0)
  end
  begin
     id 22 
     name lfingers
     direction 1 -4.48925e-011 -1.22426e-026   
     length 0.542293   
     axis 7.80276e-015 90 90   XYZ
    dof rx
    limits (0.0 90.0)
  end
  begin
     id 23
     name lthumb
     direction 0.707107 -6.3486e-011 0.707107   
     length 0.778628   
     axis -90 45 5.37419e-014   XYZ
    dof rx rz
    limits (-45.0 45.0)
           (-45.0 45.0)
  end
  begin
     id 24 
     name rclavicle
     direction -0.960732 0.273675 -0.0457849   
     length 3.52079  
     axis 0 0 0   XYZ 
    dof ry rz
    limits (-10.0 20.0)
           (-20.0 0.0)
  end
  begin
     id 25 
     name rhumerus
     direction -1 -4.48976e-011 -1.63613e-027  
     length 5.45222   
     axis 180 30 90   XYZ
    dof rx ry rz
    limits (-90.0 60.0)
           (-90.0 90.0)
           (-90.0 90.0)
  end
  begin
     id 26 
     name rradius
     direction -1 -4.48957e-011 -7.00033e-028   
     length 3.01284   
     axis 180 30 90   XYZ
    dof rx
    limits (-10.0 170.0)
  end
  begin
     id 27 
     name rwrist
     direction -1 -4.48983e-011 -3.05543e-027   
     length 1.50642   
     axis 8.48514e-016 -90 -90   XYZ
    dof ry
    limits (-180.0 0.0)
  end
  begin
     id 28
     name rhand
     direction -1 -4.48984e-011 -6.11072e-027   
     length 0.622296   
     axis 3.9013e-015 -90 -90   XYZ
    dof rx rz
    limits (-90.0 90.0)
           (-45.0 45.0)
  end
  begin
     id 29
     name rfingers
     direction -1 -4.48865e-011 -1.22637e-026   
     length 0.501711   
     axis 7.80276e-015 -90 -90   XYZ
    dof rx
    limits (0.0 90.0)
  end
  begin
     id 30
     name rthumb
     direction -0.707107 -6.34932e-011 0.707107   
     length 0.72036   
     axis -90 -45 -5.37419e-014   XYZ
    dof rx rz
    limits (-45.0 45.0)
           (-45.0 45.0)
  end
:hierarchy
  begin
    root lhipjoint rhipjoint lowerback
    lhipjoint lfemur
    lfemur ltibia
    ltibia lfoot
    lfoot ltoes
    rhipjoint rfemur
    rfemur rtibia
    rtibia rfoot
    rfoot rtoes
    lowerback upperback
    upperback thorax
    thorax lowerneck lclavicle rclavicle
    lowerneck upperneck
    upperneck head
    lclavicle lhumerus
    lhumerus lradius
    lradius lwrist
    lwrist lhand lthumb
    lhand lfingers
    rclavicle rhumerus
    rhumerus rradius
    rradius rwrist
    rwrist rhand rthumb
    rhand rfingers
  end

#!OML:ASF H:\Not Pregnant\Project 1\Capture day 1\Session 1\non-pregnant.ASF
:FULLY-SPECIFIED
:DEGREES
417
root -6.23272 16.106 5.66576 -169.183 3.44453 -186.903
lowerback -5.99748 2.50612 -2.87596
upperback 1.65702 3.91437 -3.59686
thorax 5.15399 1.97553 -1.71372
lowerneck 11.1723 -6.5575 -32.63
upperneck 14.0289 -16.8771 22.667
head 7.1086 -10.1099 12.3043
rclavicle -2.92524e-014 1.71949e-014
rhumerus -18.6463 -3.51646 -94.7643
rradius 30.6238
rwrist 23.702
rhand -1.43443 6.93751
rfingers 7.12502
rthumb 24.2157 -21.5535
lclavicle -2.92524e-014 1.71949e-014
lhumerus -32.0529 -27.0579 95.6558
lradius 34.9533
lwrist 31.5214
lhand -8.55962 -14.8454
lfingers 7.12502
lthumb 17.3703 14.3984
rfemur -45.3877 -6.61177 21.0846
rtibia 16.8654
rfoot -4.06737 13.6273
rtoes -21.7475
lfemur -5.31555 0.651727 -31.0046
ltibia 19.6196
lfoot -21.982 -15.9115
ltoes -16.5221
418
root -6.21427 16.0926 5.53478 -169.022 3.20235 -187.047
lowerback -6.18379 2.4222 -2.91919
upperback 1.53583 3.79501 -3.48879
thorax 5.12038 1.90977 -1.58387
lowerneck 11.2415 -6.554 -32.608
upperneck 14.122 -16.9168 22.5006
head 7.12052 -10.1455 12.2313
rclavicle 1.91951e-015 -1.64494e-014
rhumerus -18.8869 -4.32924 -94.2821
rradius 29.6445
rwrist 23.5028
rhand -1.96605 6.27599
rfingers 7.12502
rthumb 23.706 -22.2821
lclavicle 1.91951e-015 -1.64494e-014
lhumerus -32.4003 -26.9546 95.8857
lradius 34.7954
lwrist 31.9527
lhand -9.04138 -14.3766
lfingers 7.12502
lthumb 16.9066 14.9075
rfemur -45.1573 -5.85678 20.3411
rtibia 17.516
rfoot -3.72348 12.2716
rtoes -22.3131
lfemur -4.74812 0.559848 -31.061
ltibia 19.1797
lfoot -21.8054 -16.2038
ltoes -16.7234
419
root -6.19621 16.0862 5.40239 -168.855 2.96174 -187.178
lowerback -6.37494 2.33207 -2.95267
upperback 1.39928 3.66483 -3.36494
thorax 5.07345 1.83879 -1.44468
lowerneck 11.3247 -6.53741 -32.5909
upperneck 14.2224 -16.9444 22.3132
head 7.12701 -10.1782 12.1533
rclavicle -2.61029e-014 2.9768e-014
rhumerus -19.1117 -5.17192 -93.7421
rradius 28.5784
rwrist 23.2041
rhand -2.63381 5.62341
rfingers 7.12502
rthumb 23.0654 -23.0162
lclavicle -2.61029e-014 2.9768e-014
lhumerus -32.7409 -26.7014 96.0937
lradius 34.5631
lwrist 32.2981
lhand -9.50622 -13.9922
lfingers 7.12502
lthumb 16.4591 15.3296
rfemur -45.1326 -5.36636 19.8423
rtibia 18.2843
rfoot -3.03859 11.405
rtoes -22.4903
lfemur -4.06054 0.431802 -31.0978
ltibia 18.4953
lfoot -21.4679 -16.5289
ltoes -16.9126
420
root -6.17877 16.0871 5.2683 -168.678 2.72161 -187.299
lowerback -6.57318 2.23297 -2.98305
upperback 1.23859 3.52018 -3.22037
thorax 5.00471 1.76068 -1.28785
lowerneck 11.4315 -6.49929 -32.5892
upperneck 14.3365 -16.9549 22.0993
head 7.12753 -10.2078 12.0715
rclavicle -4.06763e-014 5.397e-014
rhumerus -19.3441 -6.01026 -93.1428
rradius 27.4553
rwrist 22.7368
rhand -3.49821 5.05122
rfingers 7.12502
rthumb 22.2358 -23.6897
lclavicle -4.06763e-014 5.397e-014
lhumerus -33.0872 -26.2861 96.2924
lradius 34.246
lwrist 32.5542
lhand -9.95812 -13.7112
lfingers 7.12502
lthumb 16.024 15.6461
rfemur -45.3079 -5.11991 19.5502
rtibia 19.1258
rfoot -2.10376 11.0224
rtoes -22.3791
lfemur -3.24712 0.252057 -31.1219
ltibia 17.547
lfoot -20.9376 -16.8815
ltoes -17.0731
421
root -6.16235 16.0941 5.13129 -168.508 2.47651 -187.385
lowerback -6.7563 2.11769 -2.97595
upperback 1.06255 3.34677 -3.04479
thorax 4.91233 1.669 -1.1242
lowerneck 11.5377 -6.44416 -32.6132
upperneck 14.4662 -16.9448 21.8539
head 7.12659 -10.2312 11.984
rclavicle 2.28851e-014 -2.18663e-014
rhumerus -19.5836 -6.81034 -92.4932
rradius 26.348
rwrist 22.0342
rhand -4.43421 4.46287
rfingers 7.12502
rthumb 21.3369 -24.3824
lclavicle 2.28851e-014 -2.18663e-014
lhumerus -33.424 -25.678 96.4672
lradius 33.8644
lwrist 32.726
lhand -10.3898 -13.5483
lfingers 7.12502
lthumb 15.6083 15.842
rfemur -45.5996 -5.07041 19.4321
rtibia 19.9753
rfoot -1.00511 11.0628
rtoes -21.911
lfemur -2.30198 0.0222454 -31.1096
ltibia 16.3757
lfoot -20.2518 -17.2298
ltoes -17.342
422
root -6.14735 16.1045 4.99161 -168.337 2.22258 -187.434
lowerback -6.93348 1.99039 -2.92765
upperback 0.864664 3.15052 -2.8371
thorax 4.79512 1.567 -0.953773
lowerneck 11.6606 -6.36709 -32.6621
upperneck 14.6098 -16.9157 21.5799
head 7.12139 -10.2511 11.893
rclavicle 3.42904e-015 1.96797e-014
rhumerus -19.8563 -7.57123 -91.7856
rradius 25.2868
rwrist 21.1839
rhand -5.48509 3.91133
rfingers 7.12502
rthumb 20.3273 -25.0449
lclavicle 3.42904e-015 1.96797e-014
lhumerus -33.7575 -24.9002 96.6307
lradius 33.3911
lwrist 32.8307
lhand -10.8044 -13.5034
lfingers 7.12502
lthumb 15.2089 15.9176
rfemur -45.9476 -5.2055 19.4617
rtibia 20.792
rfoot 0.191411 11.4677
rtoes -21.173
lfemur -1.27413 -0.267672 -31.0641
ltibia 15.0584
lfoot -19.4376 -17.5532
ltoes -17.6999
423
root -6.13394 16.1156 4.84929 -168.167 1.98775 -187.417
lowerback -7.10236 1.87032 -2.7995
upperback 0.657873 2.95487 -2.60162
thorax 4.66758 1.46715 -0.799988
lowerneck 11.753 -6.2937 -32.7207
upperneck 14.7771 -16.8853 21.2823
head 7.12796 -10.2713 11.7926
rclavicle -2.08227e-014 -1.98785e-015
rhumerus -20.1517 -8.29829 -91.032
rradius 24.3416
rwrist 20.2948
rhand -6.53896 3.26232
rfingers 7.12502
rthumb 19.3142 -25.7985
lclavicle -2.08227e-014 -1.98785e-015
lhumerus -34.0587 -23.9919 96.7633
lradius 32.8393
lwrist 32.8794
lhand -11.1725 -13.4042
lfingers 7.12502
lthumb 14.8543 16.0433
rfemur -46.2678 -5.45147 19.6255
rtibia 21.5504
rfoot 1.41786 12.1353
rtoes -20.1533
lfemur -0.207824 -0.595833 -30.9632
ltibia 13.6899
lfoot -18.5576 -17.8014
ltoes -18.2079
424
root -6.12237 16.1261 4.70526 -167.996 1.76579 -187.334
lowerback -7.26532 1.75449 -2.58731
upperback 0.442647 2.75637 -2.33821
thorax 4.53133 1.36786 -0.665362
lowerneck 11.8409 -6.21304 -32.7962
upperneck 14.9466 -16.8471 20.9803
head 7.13529 -10.2899 11.694
rclavicle 1.16289e-014 -2.90226e-014
rhumerus -20.4746 -8.99958 -90.2259
rradius 23.5295
rwrist 19.5454
rhand -7.55041 2.50711
rfingers 7.12502
rthumb 18.3414 -26.6482
lclavicle 1.16289e-014 -2.90226e-014
lhumerus -34.3299 -22.962 96.8665
lradius 32.2115
lwrist 32.877
lhand -11.5477 -13.3497
lfingers 7.12502
lthumb 14.4929 16.1241
rfemur -46.5088 -5.77014 19.891
rtibia 22.247
rfoot 2.60871 12.976
rtoes -18.6813
lfemur 0.84132 -0.956105 -30.8068
ltibia 12.3647
lfoot -17.6326 -17.9992
ltoes -18.7488
425
root -6.11208 16.1367 4.56024 -167.822 1.57277 -187.173
lowerback -7.42625 1.64994 -2.28843
upperback 0.222259 2.5651 -2.04507
thorax 4.39156 1.27404 -0.548295
lowerneck 11.931 -6.12696 -32.8837
upperneck 15.1041 -16.8033 20.6838
head 7.13873 -10.3068 11.6002
rclavicle -2.38542e-015 5.96354e-015
rhumerus -20.8273 -9.67964 -89.3657
rradius 22.8662
rwrist 19.1055
rhand -8.46647 1.65284
rfingers 7.12502
rthumb 17.46 -27.583
lclavicle -2.38542e-015 5.96354e-015
lhumerus -34.57 -21.8213 96.9358
lradius 31.5232
lwrist 32.8283
lhand -11.9447 -13.3067
lfingers 7.12502
lthumb 14.1103 16.1942
rfemur -46.654 -6.05675 20.221
rtibia 22.8868
rfoot 3.71213 13.8092
rtoes -17.033
lfemur 1.82548 -1.32607 -30.5823
ltibia 11.1629
lfoot -16.721 -18.1242
ltoes -19.3872
426
root -6.10296 16.1485 4.41509 -167.641 1.41448 -186.94
lowerback -7.59036 1.55729 -1.91039
upperback 0.000561169 2.38418 -1.72621
thorax 4.25461 1.18723 -0.448249
lowerneck 12.032 -6.03481 -32.986
upperneck 15.233 -16.754 20.4069
head 7.13298 -10.321 11.5177
rclavicle 3.10104e-014 -5.56597e-015
rhumerus -21.2039 -10.3399 -88.4533
rradius 22.3485
rwrist 19.1188
rhand -9.28566 0.743441
rfingers 7.12502
rthumb 16.6714 -28.5606
lclavicle 3.10104e-014 -5.56597e-015
lhumerus -34.772 -20.579 96.9608
lradius 30.7865
lwrist 32.7458
lhand -12.3488 -13.2959
lfingers 7.12502
lthumb 13.7209 16.2318
rfemur -46.7225 -6.2218 20.5579
rtibia 23.49
rfoot 4.65416 14.4594
rtoes -15.3744
lfemur 2.70926 -1.70051 -30.2957
ltibia 10.1321
lfoot -15.8244 -18.193
ltoes -20.1138
427
root -6.09482 16.1619 4.26972 -167.45 1.31083 -186.645
lowerback -7.75759 1.47666 -1.47334
upperback -0.230469 2.21664 -1.38079
thorax 4.11089 1.10892 -0.352922
lowerneck 12.1474 -5.92784 -33.1031
upperneck 15.3442 -16.6911 20.1386
head 7.11748 -10.3305 11.4434
rclavicle 2.79292e-014 0
rhumerus -21.6219 -10.9592 -87.4867
rradius 21.9543
rwrist 19.6659
rhand -9.99211 -0.188694
rfingers 7.12502
rthumb 15.9912 -29.5487
lclavicle 2.79292e-014 0
lhumerus -34.9656 -19.2427 96.9556
lradius 30.017
lwrist 32.6331
lhand -12.7758 -13.3105
lfingers 7.12502
lthumb 13.3093 16.2445
rfemur -46.7318 -6.16695 20.8398
rtibia 24.0752
rfoot 5.3106 14.7982
rtoes -14.0091
lfemur 3.47874 -2.23319 -29.9693
ltibia 9.28753
lfoot -14.9211 -18.0477
ltoes -20.9481
428
root -6.08762 16.1769 4.12456 -167.254 1.26994 -186.304
lowerback -7.92345 1.41232 -0.990884
upperback -0.460406 2.07101 -1.02131
thorax 3.96848 1.04333 -0.266624
lowerneck 12.2635 -5.81712 -33.2266
upperneck 15.438 -16.6233 19.8833
head 7.09686 -10.3372 11.3758
rclavicle -2.03754e-014 1.19271e-014
rhumerus -22.0613 -11.5426 -86.479
rradius 21.6687
rwrist 20.7485
rhand -10.5926 -1.09279
rfingers 7.12502
rthumb 15.413 -30.4982
lclavicle -2.03754e-014 1.19271e-014
lhumerus -35.1435 -17.8523 96.9162
lradius 29.2382
lwrist 32.4945
lhand -13.2235 -13.3227
lfingers 7.12502
lthumb 12.8777 16.26
rfemur -46.7008 -5.90731 21.068
rtibia 24.6614
rfoot 5.55096 14.8622
rtoes -13.1407
lfemur 4.13244 -2.69559 -29.6134
ltibia 8.63205
lfoot -14.0437 -17.9227
ltoes -21.8385
429
root -6.08068 16.1937 3.9802 -167.054 1.30892 -185.929
lowerback -8.0853 1.36622 -0.481805
upperback -0.681808 1.95204 -0.651467
thorax 3.83293 0.992467 -0.181985
lowerneck 12.3694 -5.70572 -33.355
upperneck 15.5163 -16.55 19.6407
head 7.07321 -10.3398 11.3138
rclavicle -1.23246e-014 -1.27222e-014
rhumerus -22.5057 -12.0792 -85.4442
rradius 21.4717
rwrist 22.3193
rhand -11.1071 -1.96782
rfingers 7.12502
rthumb 14.9173 -31.4107
lclavicle -1.23246e-014 -1.27222e-014
lhumerus -35.3068 -16.4265 96.8418
lradius 28.4786
lwrist 32.3423
lhand -13.6772 -13.2627
lfingers 7.12502
lthumb 12.4403 16.347
rfemur -46.6404 -5.43053 21.237
rtibia 25.2504
rfoot 5.42225 14.6924
rtoes -12.5946
lfemur 4.64909 -3.07144 -29.2357
ltibia 8.20241
lfoot -13.209 -17.8151
ltoes -22.848
